<?xml version="1.0" encoding="utf-8"?>
<svg xmlns="http://www.w3.org/2000/svg" baseProfile="tiny" height="250px" version="1.2" width="250px" x="0in" y="0in" xmlns:bx="https://boxy-svg.com">
  <g partid="854162790" transform="matrix(3.451128, 0, 0, 3.451128, 36.788319, 15.984797)">
    <g transform="translate(0,5.6)">
      <g transform="matrix(1, 0, 0, 1, 0.399945, 0.399945)">
        <g fill="none" font-family="'Droid Sans'" font-size="2.49806" id="schematic" stroke-linecap="round" stroke-linejoin="round" stroke-width="0.559923">
          <g fill="none" stroke="black" stroke-width="0.319956">
            <path d="M0,7.19901l53.5927,0M0,14.398l53.5927,0M0,21.597l53.5927,0M0,28.7961l53.5927,0M0,35.9951l53.5927,0M0,43.1941l53.5927,0M0,50.3931l53.5927,0M0,57.5921l53.5927,0M7.19901,0l0,53.5927M14.398,0l0,53.5927M21.597,0l0,53.5927M28.7961,0l0,53.5927M35.9951,0l0,53.5927M43.1941,0l0,53.5927M50.3931,0l0,53.5927M57.5921,0l0,53.5927"/>
            <g fill="black" stroke="none">
              <g transform="matrix(1, 0, 0, 1, 3.19956, 7.19901)">
                <g>
                  <circle cx="0" cy="0" r="0.359951"/>
                  <circle cx="7.19901" cy="0" r="0.359951"/>
                  <circle cx="14.398" cy="0" r="0.359951"/>
                  <circle cx="21.597" cy="0" r="0.359951"/>
                  <circle cx="28.7961" cy="0" r="0.359951"/>
                  <circle cx="35.9951" cy="0" r="0.359951"/>
                  <circle cx="43.1941" cy="0" r="0.359951"/>
                  <g transform="matrix(1, 0, 0, 1, 0, 7.19901)">
                    <g>
                      <circle cx="0" cy="0" r="0.359951"/>
                      <circle cx="7.19901" cy="0" r="0.359951"/>
                      <circle cx="14.398" cy="0" r="0.359951"/>
                      <circle cx="21.597" cy="0" r="0.359951"/>
                      <circle cx="28.7961" cy="0" r="0.359951"/>
                      <circle cx="35.9951" cy="0" r="0.359951"/>
                      <circle cx="43.1941" cy="0" r="0.359951"/>
                    </g>
                  </g>
                  <g transform="matrix(1, 0, 0, 1, 0, 14.398)">
                    <g>
                      <circle cx="0" cy="0" r="0.359951"/>
                      <circle cx="7.19901" cy="0" r="0.359951"/>
                      <circle cx="14.398" cy="0" r="0.359951"/>
                      <circle cx="21.597" cy="0" r="0.359951"/>
                      <circle cx="28.7961" cy="0" r="0.359951"/>
                      <circle cx="35.9951" cy="0" r="0.359951"/>
                      <circle cx="43.1941" cy="0" r="0.359951"/>
                    </g>
                  </g>
                  <g transform="matrix(1, 0, 0, 1, 0, 21.597)">
                    <g>
                      <circle cx="0" cy="0" r="0.359951"/>
                      <circle cx="7.19901" cy="0" r="0.359951"/>
                      <circle cx="14.398" cy="0" r="0.359951"/>
                      <circle cx="21.597" cy="0" r="0.359951"/>
                      <circle cx="28.7961" cy="0" r="0.359951"/>
                      <circle cx="35.9951" cy="0" r="0.359951"/>
                      <circle cx="43.1941" cy="0" r="0.359951"/>
                    </g>
                  </g>
                  <g transform="matrix(1, 0, 0, 1, 0, 28.7961)">
                    <g>
                      <circle cx="0" cy="0" r="0.359951"/>
                      <circle cx="7.19901" cy="0" r="0.359951"/>
                      <circle cx="14.398" cy="0" r="0.359951"/>
                      <circle cx="21.597" cy="0" r="0.359951"/>
                      <circle cx="28.7961" cy="0" r="0.359951"/>
                      <circle cx="35.9951" cy="0" r="0.359951"/>
                      <circle cx="43.1941" cy="0" r="0.359951"/>
                    </g>
                  </g>
                  <g transform="matrix(1, 0, 0, 1, 0, 35.9951)">
                    <g>
                      <circle cx="0" cy="0" r="0.359951"/>
                      <circle cx="7.19901" cy="0" r="0.359951"/>
                      <circle cx="14.398" cy="0" r="0.359951"/>
                      <circle cx="21.597" cy="0" r="0.359951"/>
                      <circle cx="28.7961" cy="0" r="0.359951"/>
                      <circle cx="35.9951" cy="0" r="0.359951"/>
                      <circle cx="43.1941" cy="0" r="0.359951"/>
                    </g>
                  </g>
                  <g transform="matrix(1, 0, 0, 1, 0, 43.1941)">
                    <g>
                      <circle cx="0" cy="0" r="0.359951"/>
                      <circle cx="7.19901" cy="0" r="0.359951"/>
                      <circle cx="14.398" cy="0" r="0.359951"/>
                      <circle cx="21.597" cy="0" r="0.359951"/>
                      <circle cx="28.7961" cy="0" r="0.359951"/>
                      <circle cx="35.9951" cy="0" r="0.359951"/>
                      <circle cx="43.1941" cy="0" r="0.359951"/>
                    </g>
                  </g>
                  <g transform="matrix(1, 0, 0, 1, 0, 50.3931)">
                    <g>
                      <circle cx="0" cy="0" r="0.359951"/>
                      <circle cx="7.19901" cy="0" r="0.359951"/>
                      <circle cx="14.398" cy="0" r="0.359951"/>
                      <circle cx="21.597" cy="0" r="0.359951"/>
                      <circle cx="28.7961" cy="0" r="0.359951"/>
                      <circle cx="35.9951" cy="0" r="0.359951"/>
                      <circle cx="43.1941" cy="0" r="0.359951"/>
                    </g>
                  </g>
                </g>
              </g>
              <g transform="matrix(1, 0, 0, 1, 7.19901, 3.19956)">
                <g>
                  <circle cx="0" cy="0" r="0.359951"/>
                  <circle cx="7.19901" cy="0" r="0.359951"/>
                  <circle cx="14.398" cy="0" r="0.359951"/>
                  <circle cx="21.597" cy="0" r="0.359951"/>
                  <circle cx="28.7961" cy="0" r="0.359951"/>
                  <circle cx="35.9951" cy="0" r="0.359951"/>
                  <circle cx="43.1941" cy="0" r="0.359951"/>
                  <circle cx="50.3931" cy="0" r="0.359951"/>
                  <g transform="matrix(1, 0, 0, 1, 0, 7.19901)">
                    <g>
                      <circle cx="0" cy="0" r="0.359951"/>
                      <circle cx="7.19901" cy="0" r="0.359951"/>
                      <circle cx="14.398" cy="0" r="0.359951"/>
                      <circle cx="21.597" cy="0" r="0.359951"/>
                      <circle cx="28.7961" cy="0" r="0.359951"/>
                      <circle cx="35.9951" cy="0" r="0.359951"/>
                      <circle cx="43.1941" cy="0" r="0.359951"/>
                      <circle cx="50.3931" cy="0" r="0.359951"/>
                    </g>
                  </g>
                  <g transform="matrix(1, 0, 0, 1, 0, 14.398)">
                    <g>
                      <circle cx="0" cy="0" r="0.359951"/>
                      <circle cx="7.19901" cy="0" r="0.359951"/>
                      <circle cx="14.398" cy="0" r="0.359951"/>
                      <circle cx="21.597" cy="0" r="0.359951"/>
                      <circle cx="28.7961" cy="0" r="0.359951"/>
                      <circle cx="35.9951" cy="0" r="0.359951"/>
                      <circle cx="43.1941" cy="0" r="0.359951"/>
                      <circle cx="50.3931" cy="0" r="0.359951"/>
                    </g>
                  </g>
                  <g transform="matrix(1, 0, 0, 1, 0, 21.597)">
                    <g>
                      <circle cx="0" cy="0" r="0.359951"/>
                      <circle cx="7.19901" cy="0" r="0.359951"/>
                      <circle cx="14.398" cy="0" r="0.359951"/>
                      <circle cx="21.597" cy="0" r="0.359951"/>
                      <circle cx="28.7961" cy="0" r="0.359951"/>
                      <circle cx="35.9951" cy="0" r="0.359951"/>
                      <circle cx="43.1941" cy="0" r="0.359951"/>
                      <circle cx="50.3931" cy="0" r="0.359951"/>
                    </g>
                  </g>
                  <g transform="matrix(1, 0, 0, 1, 0, 28.7961)">
                    <g>
                      <circle cx="0" cy="0" r="0.359951"/>
                      <circle cx="7.19901" cy="0" r="0.359951"/>
                      <circle cx="14.398" cy="0" r="0.359951"/>
                      <circle cx="21.597" cy="0" r="0.359951"/>
                      <circle cx="28.7961" cy="0" r="0.359951"/>
                      <circle cx="35.9951" cy="0" r="0.359951"/>
                      <circle cx="43.1941" cy="0" r="0.359951"/>
                      <circle cx="50.3931" cy="0" r="0.359951"/>
                    </g>
                  </g>
                  <g transform="matrix(1, 0, 0, 1, 0, 35.9951)">
                    <g>
                      <circle cx="0" cy="0" r="0.359951"/>
                      <circle cx="7.19901" cy="0" r="0.359951"/>
                      <circle cx="14.398" cy="0" r="0.359951"/>
                      <circle cx="21.597" cy="0" r="0.359951"/>
                      <circle cx="28.7961" cy="0" r="0.359951"/>
                      <circle cx="35.9951" cy="0" r="0.359951"/>
                      <circle cx="43.1941" cy="0" r="0.359951"/>
                      <circle cx="50.3931" cy="0" r="0.359951"/>
                    </g>
                  </g>
                  <g transform="matrix(1, 0, 0, 1, 0, 43.1941)">
                    <g>
                      <circle cx="0" cy="0" r="0.359951"/>
                      <circle cx="7.19901" cy="0" r="0.359951"/>
                      <circle cx="14.398" cy="0" r="0.359951"/>
                      <circle cx="21.597" cy="0" r="0.359951"/>
                      <circle cx="28.7961" cy="0" r="0.359951"/>
                      <circle cx="35.9951" cy="0" r="0.359951"/>
                      <circle cx="43.1941" cy="0" r="0.359951"/>
                      <circle cx="50.3931" cy="0" r="0.359951"/>
                    </g>
                  </g>
                </g>
              </g>
            </g>
            <g transform="matrix(1, 0, 0, 1, 3.19956, 7.19901)">
              <g>
                <path d="M0,0l1.59978,-1.59978l1.59978,0l-1.59978,-1.59978l0,1.59978m-0.79989,-0.79989,1.59978,1.59978m0,-1.59978l1.59978,-1.59978"/>
                <path d="M0,7.19901l1.59978,-1.59978l1.59978,0l-1.59978,-1.59978l0,1.59978m-0.79989,-0.79989,1.59978,1.59978m0,-1.59978l1.59978,-1.59978"/>
                <path d="M0,14.398l1.59978,-1.59978l1.59978,0l-1.59978,-1.59978l0,1.59978m-0.79989,-0.79989,1.59978,1.59978m0,-1.59978l1.59978,-1.59978"/>
                <path d="M0,21.597l1.59978,-1.59978l1.59978,0l-1.59978,-1.59978l0,1.59978m-0.79989,-0.79989,1.59978,1.59978m0,-1.59978l1.59978,-1.59978"/>
                <path d="M0,28.7961l1.59978,-1.59978l1.59978,0l-1.59978,-1.59978l0,1.59978m-0.79989,-0.79989,1.59978,1.59978m0,-1.59978l1.59978,-1.59978"/>
                <path d="M0,35.9951l1.59978,-1.59978l1.59978,0l-1.59978,-1.59978l0,1.59978m-0.79989,-0.79989,1.59978,1.59978m0,-1.59978l1.59978,-1.59978"/>
                <path d="M0,43.1941l1.59978,-1.59978l1.59978,0l-1.59978,-1.59978l0,1.59978m-0.79989,-0.79989,1.59978,1.59978m0,-1.59978l1.59978,-1.59978"/>
                <path d="M0,50.3931l1.59978,-1.59978l1.59978,0l-1.59978,-1.59978l0,1.59978m-0.79989,-0.79989,1.59978,1.59978m0,-1.59978l1.59978,-1.59978"/>
                <g transform="matrix(1, 0, 0, 1, 7.19901, 0)">
                  <g>
                    <path d="M0,0l1.59978,-1.59978l1.59978,0l-1.59978,-1.59978l0,1.59978m-0.79989,-0.79989,1.59978,1.59978m0,-1.59978l1.59978,-1.59978"/>
                    <path d="M0,7.19901l1.59978,-1.59978l1.59978,0l-1.59978,-1.59978l0,1.59978m-0.79989,-0.79989,1.59978,1.59978m0,-1.59978l1.59978,-1.59978"/>
                    <path d="M0,14.398l1.59978,-1.59978l1.59978,0l-1.59978,-1.59978l0,1.59978m-0.79989,-0.79989,1.59978,1.59978m0,-1.59978l1.59978,-1.59978"/>
                    <path d="M0,21.597l1.59978,-1.59978l1.59978,0l-1.59978,-1.59978l0,1.59978m-0.79989,-0.79989,1.59978,1.59978m0,-1.59978l1.59978,-1.59978"/>
                    <path d="M0,28.7961l1.59978,-1.59978l1.59978,0l-1.59978,-1.59978l0,1.59978m-0.79989,-0.79989,1.59978,1.59978m0,-1.59978l1.59978,-1.59978"/>
                    <path d="M0,35.9951l1.59978,-1.59978l1.59978,0l-1.59978,-1.59978l0,1.59978m-0.79989,-0.79989,1.59978,1.59978m0,-1.59978l1.59978,-1.59978"/>
                    <path d="M0,43.1941l1.59978,-1.59978l1.59978,0l-1.59978,-1.59978l0,1.59978m-0.79989,-0.79989,1.59978,1.59978m0,-1.59978l1.59978,-1.59978"/>
                    <path d="M0,50.3931l1.59978,-1.59978l1.59978,0l-1.59978,-1.59978l0,1.59978m-0.79989,-0.79989,1.59978,1.59978m0,-1.59978l1.59978,-1.59978"/>
                  </g>
                </g>
                <g transform="matrix(1, 0, 0, 1, 14.398, 0)">
                  <g>
                    <path d="M0,0l1.59978,-1.59978l1.59978,0l-1.59978,-1.59978l0,1.59978m-0.79989,-0.79989,1.59978,1.59978m0,-1.59978l1.59978,-1.59978"/>
                    <path d="M0,7.19901l1.59978,-1.59978l1.59978,0l-1.59978,-1.59978l0,1.59978m-0.79989,-0.79989,1.59978,1.59978m0,-1.59978l1.59978,-1.59978"/>
                    <path d="M0,14.398l1.59978,-1.59978l1.59978,0l-1.59978,-1.59978l0,1.59978m-0.79989,-0.79989,1.59978,1.59978m0,-1.59978l1.59978,-1.59978"/>
                    <path d="M0,21.597l1.59978,-1.59978l1.59978,0l-1.59978,-1.59978l0,1.59978m-0.79989,-0.79989,1.59978,1.59978m0,-1.59978l1.59978,-1.59978"/>
                    <path d="M0,28.7961l1.59978,-1.59978l1.59978,0l-1.59978,-1.59978l0,1.59978m-0.79989,-0.79989,1.59978,1.59978m0,-1.59978l1.59978,-1.59978"/>
                    <path d="M0,35.9951l1.59978,-1.59978l1.59978,0l-1.59978,-1.59978l0,1.59978m-0.79989,-0.79989,1.59978,1.59978m0,-1.59978l1.59978,-1.59978"/>
                    <path d="M0,43.1941l1.59978,-1.59978l1.59978,0l-1.59978,-1.59978l0,1.59978m-0.79989,-0.79989,1.59978,1.59978m0,-1.59978l1.59978,-1.59978"/>
                    <path d="M0,50.3931l1.59978,-1.59978l1.59978,0l-1.59978,-1.59978l0,1.59978m-0.79989,-0.79989,1.59978,1.59978m0,-1.59978l1.59978,-1.59978"/>
                  </g>
                </g>
                <g transform="matrix(1, 0, 0, 1, 21.597, 0)">
                  <g>
                    <path d="M0,0l1.59978,-1.59978l1.59978,0l-1.59978,-1.59978l0,1.59978m-0.79989,-0.79989,1.59978,1.59978m0,-1.59978l1.59978,-1.59978"/>
                    <path d="M0,7.19901l1.59978,-1.59978l1.59978,0l-1.59978,-1.59978l0,1.59978m-0.79989,-0.79989,1.59978,1.59978m0,-1.59978l1.59978,-1.59978"/>
                    <path d="M0,14.398l1.59978,-1.59978l1.59978,0l-1.59978,-1.59978l0,1.59978m-0.79989,-0.79989,1.59978,1.59978m0,-1.59978l1.59978,-1.59978"/>
                    <path d="M0,21.597l1.59978,-1.59978l1.59978,0l-1.59978,-1.59978l0,1.59978m-0.79989,-0.79989,1.59978,1.59978m0,-1.59978l1.59978,-1.59978"/>
                    <path d="M0,28.7961l1.59978,-1.59978l1.59978,0l-1.59978,-1.59978l0,1.59978m-0.79989,-0.79989,1.59978,1.59978m0,-1.59978l1.59978,-1.59978"/>
                    <path d="M0,35.9951l1.59978,-1.59978l1.59978,0l-1.59978,-1.59978l0,1.59978m-0.79989,-0.79989,1.59978,1.59978m0,-1.59978l1.59978,-1.59978"/>
                    <path d="M0,43.1941l1.59978,-1.59978l1.59978,0l-1.59978,-1.59978l0,1.59978m-0.79989,-0.79989,1.59978,1.59978m0,-1.59978l1.59978,-1.59978"/>
                    <path d="M0,50.3931l1.59978,-1.59978l1.59978,0l-1.59978,-1.59978l0,1.59978m-0.79989,-0.79989,1.59978,1.59978m0,-1.59978l1.59978,-1.59978"/>
                  </g>
                </g>
                <g transform="matrix(1, 0, 0, 1, 28.7961, 0)">
                  <g>
                    <path d="M0,0l1.59978,-1.59978l1.59978,0l-1.59978,-1.59978l0,1.59978m-0.79989,-0.79989,1.59978,1.59978m0,-1.59978l1.59978,-1.59978"/>
                    <path d="M0,7.19901l1.59978,-1.59978l1.59978,0l-1.59978,-1.59978l0,1.59978m-0.79989,-0.79989,1.59978,1.59978m0,-1.59978l1.59978,-1.59978"/>
                    <path d="M0,14.398l1.59978,-1.59978l1.59978,0l-1.59978,-1.59978l0,1.59978m-0.79989,-0.79989,1.59978,1.59978m0,-1.59978l1.59978,-1.59978"/>
                    <path d="M0,21.597l1.59978,-1.59978l1.59978,0l-1.59978,-1.59978l0,1.59978m-0.79989,-0.79989,1.59978,1.59978m0,-1.59978l1.59978,-1.59978"/>
                    <path d="M0,28.7961l1.59978,-1.59978l1.59978,0l-1.59978,-1.59978l0,1.59978m-0.79989,-0.79989,1.59978,1.59978m0,-1.59978l1.59978,-1.59978"/>
                    <path d="M0,35.9951l1.59978,-1.59978l1.59978,0l-1.59978,-1.59978l0,1.59978m-0.79989,-0.79989,1.59978,1.59978m0,-1.59978l1.59978,-1.59978"/>
                    <path d="M0,43.1941l1.59978,-1.59978l1.59978,0l-1.59978,-1.59978l0,1.59978m-0.79989,-0.79989,1.59978,1.59978m0,-1.59978l1.59978,-1.59978"/>
                    <path d="M0,50.3931l1.59978,-1.59978l1.59978,0l-1.59978,-1.59978l0,1.59978m-0.79989,-0.79989,1.59978,1.59978m0,-1.59978l1.59978,-1.59978"/>
                  </g>
                </g>
                <g transform="matrix(1, 0, 0, 1, 35.9951, 0)">
                  <g>
                    <path d="M0,0l1.59978,-1.59978l1.59978,0l-1.59978,-1.59978l0,1.59978m-0.79989,-0.79989,1.59978,1.59978m0,-1.59978l1.59978,-1.59978"/>
                    <path d="M0,7.19901l1.59978,-1.59978l1.59978,0l-1.59978,-1.59978l0,1.59978m-0.79989,-0.79989,1.59978,1.59978m0,-1.59978l1.59978,-1.59978"/>
                    <path d="M0,14.398l1.59978,-1.59978l1.59978,0l-1.59978,-1.59978l0,1.59978m-0.79989,-0.79989,1.59978,1.59978m0,-1.59978l1.59978,-1.59978"/>
                    <path d="M0,21.597l1.59978,-1.59978l1.59978,0l-1.59978,-1.59978l0,1.59978m-0.79989,-0.79989,1.59978,1.59978m0,-1.59978l1.59978,-1.59978"/>
                    <path d="M0,28.7961l1.59978,-1.59978l1.59978,0l-1.59978,-1.59978l0,1.59978m-0.79989,-0.79989,1.59978,1.59978m0,-1.59978l1.59978,-1.59978"/>
                    <path d="M0,35.9951l1.59978,-1.59978l1.59978,0l-1.59978,-1.59978l0,1.59978m-0.79989,-0.79989,1.59978,1.59978m0,-1.59978l1.59978,-1.59978"/>
                    <path d="M0,43.1941l1.59978,-1.59978l1.59978,0l-1.59978,-1.59978l0,1.59978m-0.79989,-0.79989,1.59978,1.59978m0,-1.59978l1.59978,-1.59978"/>
                    <path d="M0,50.3931l1.59978,-1.59978l1.59978,0l-1.59978,-1.59978l0,1.59978m-0.79989,-0.79989,1.59978,1.59978m0,-1.59978l1.59978,-1.59978"/>
                  </g>
                </g>
                <g transform="matrix(1, 0, 0, 1, 43.1941, 0)">
                  <g>
                    <path d="M0,0l1.59978,-1.59978l1.59978,0l-1.59978,-1.59978l0,1.59978m-0.79989,-0.79989,1.59978,1.59978m0,-1.59978l1.59978,-1.59978"/>
                    <path d="M0,7.19901l1.59978,-1.59978l1.59978,0l-1.59978,-1.59978l0,1.59978m-0.79989,-0.79989,1.59978,1.59978m0,-1.59978l1.59978,-1.59978"/>
                    <path d="M0,14.398l1.59978,-1.59978l1.59978,0l-1.59978,-1.59978l0,1.59978m-0.79989,-0.79989,1.59978,1.59978m0,-1.59978l1.59978,-1.59978"/>
                    <path d="M0,21.597l1.59978,-1.59978l1.59978,0l-1.59978,-1.59978l0,1.59978m-0.79989,-0.79989,1.59978,1.59978m0,-1.59978l1.59978,-1.59978"/>
                    <path d="M0,28.7961l1.59978,-1.59978l1.59978,0l-1.59978,-1.59978l0,1.59978m-0.79989,-0.79989,1.59978,1.59978m0,-1.59978l1.59978,-1.59978"/>
                    <path d="M0,35.9951l1.59978,-1.59978l1.59978,0l-1.59978,-1.59978l0,1.59978m-0.79989,-0.79989,1.59978,1.59978m0,-1.59978l1.59978,-1.59978"/>
                    <path d="M0,43.1941l1.59978,-1.59978l1.59978,0l-1.59978,-1.59978l0,1.59978m-0.79989,-0.79989,1.59978,1.59978m0,-1.59978l1.59978,-1.59978"/>
                    <path d="M0,50.3931l1.59978,-1.59978l1.59978,0l-1.59978,-1.59978l0,1.59978m-0.79989,-0.79989,1.59978,1.59978m0,-1.59978l1.59978,-1.59978"/>
                  </g>
                </g>
                <g transform="matrix(1, 0, 0, 1, 50.3931, 0)">
                  <g>
                    <path d="M0,0l1.59978,-1.59978l1.59978,0l-1.59978,-1.59978l0,1.59978m-0.79989,-0.79989,1.59978,1.59978m0,-1.59978l1.59978,-1.59978"/>
                    <path d="M0,7.19901l1.59978,-1.59978l1.59978,0l-1.59978,-1.59978l0,1.59978m-0.79989,-0.79989,1.59978,1.59978m0,-1.59978l1.59978,-1.59978"/>
                    <path d="M0,14.398l1.59978,-1.59978l1.59978,0l-1.59978,-1.59978l0,1.59978m-0.79989,-0.79989,1.59978,1.59978m0,-1.59978l1.59978,-1.59978"/>
                    <path d="M0,21.597l1.59978,-1.59978l1.59978,0l-1.59978,-1.59978l0,1.59978m-0.79989,-0.79989,1.59978,1.59978m0,-1.59978l1.59978,-1.59978"/>
                    <path d="M0,28.7961l1.59978,-1.59978l1.59978,0l-1.59978,-1.59978l0,1.59978m-0.79989,-0.79989,1.59978,1.59978m0,-1.59978l1.59978,-1.59978"/>
                    <path d="M0,35.9951l1.59978,-1.59978l1.59978,0l-1.59978,-1.59978l0,1.59978m-0.79989,-0.79989,1.59978,1.59978m0,-1.59978l1.59978,-1.59978"/>
                    <path d="M0,43.1941l1.59978,-1.59978l1.59978,0l-1.59978,-1.59978l0,1.59978m-0.79989,-0.79989,1.59978,1.59978m0,-1.59978l1.59978,-1.59978"/>
                    <path d="M0,50.3931l1.59978,-1.59978l1.59978,0l-1.59978,-1.59978l0,1.59978m-0.79989,-0.79989,1.59978,1.59978m0,-1.59978l1.59978,-1.59978"/>
                  </g>
                </g>
              </g>
            </g>
          </g>
          <g fill="#555555" font-size="1.99973" stroke-width="0.079989">
            <g transform="matrix(1, 0, 0, 1, 0.479934, 6.39912)">
              <g text-anchor="start">
                <text y="0" style="white-space: pre;">9</text>
                <text y="7.19901" style="white-space: pre;">14</text>
                <text y="14.398" style="white-space: pre;">8</text>
                <text y="21.597" style="white-space: pre;">12</text>
                <text y="28.7961" style="white-space: pre;">1</text>
                <text y="35.9951" style="white-space: pre;">7</text>
                <text y="43.1941" style="white-space: pre;">2</text>
                <text y="50.3931" style="white-space: pre;">5</text>
              </g>
            </g>
            <g transform="matrix(1, 0, 0, 1, 6.39912, 2.23969)">
              <g text-anchor="end">
                <text x="0" style="white-space: pre;">13</text>
                <text x="7.19901" style="white-space: pre;">3</text>
                <text x="14.398" style="white-space: pre;">4</text>
                <text x="21.597" style="white-space: pre;">10</text>
                <text x="28.7961" style="white-space: pre;">6</text>
                <text x="35.9951" style="white-space: pre;">11</text>
                <text x="43.1941" style="white-space: pre;">15</text>
                <text x="50.3931" style="white-space: pre;">16</text>
              </g>
            </g>
          </g>
          <g stroke="#787878">
            <line id="connector8pin" x1="0" x2="3.99945" y1="7.19901" y2="7.19901"/>
            <line id="connector13pin" x1="0" x2="3.99945" y1="14.398" y2="14.398"/>
            <line id="connector7pin" x1="0" x2="3.99945" y1="21.597" y2="21.597"/>
            <line id="connector11pin" x1="0" x2="3.99945" y1="28.7961" y2="28.7961"/>
            <line id="connector0pin" x1="0" x2="3.99945" y1="35.9951" y2="35.9951"/>
            <line id="connector6pin" x1="0" x2="3.99945" y1="43.1941" y2="43.1941"/>
            <line id="connector1pin" x1="0" x2="3.99945" y1="50.3931" y2="50.3931"/>
            <line id="connector4pin" x1="0" x2="3.99945" y1="57.5921" y2="57.5921"/>
            <line id="connector12pin" x1="7.19901" x2="7.19901" y1="0" y2="3.99945"/>
            <line id="connector2pin" x1="14.398" x2="14.398" y1="0" y2="3.99945"/>
            <line id="connector3pin" x1="21.597" x2="21.597" y1="0" y2="3.99945"/>
            <line id="connector9pin" x1="28.7961" x2="28.7961" y1="0" y2="3.99945"/>
            <line id="connector5pin" x1="35.9951" x2="35.9951" y1="0" y2="3.99945"/>
            <line id="connector10pin" x1="43.1941" x2="43.1941" y1="0" y2="3.99945"/>
            <line id="connector14pin" x1="50.3931" x2="50.3931" y1="0" y2="3.99945"/>
            <line id="connector15pin" x1="57.5921" x2="57.5921" y1="0" y2="3.99945"/>
          </g>
          <g fill="#787878" stroke="none">
            <g cx="0" cy="7.19901" id="connector8terminal" r="0.407944"/>
            <g cx="0" cy="14.398" id="connector13terminal" r="0.407944"/>
            <g cx="0" cy="21.597" id="connector7terminal" r="0.407944"/>
            <g cx="0" cy="28.7961" id="connector11terminal" r="0.407944"/>
            <g cx="0" cy="35.9951" id="connector0terminal" r="0.407944"/>
            <g cx="0" cy="43.1941" id="connector6terminal" r="0.407944"/>
            <g cx="0" cy="50.3931" id="connector1terminal" r="0.407944"/>
            <g cx="0" cy="57.5921" id="connector4terminal" r="0.407944"/>
            <g cx="7.19901" cy="0" id="connector12terminal" r="0.407944"/>
            <g cx="14.398" cy="0" id="connector2terminal" r="0.407944"/>
            <g cx="21.597" cy="0" id="connector3terminal" r="0.407944"/>
            <g cx="28.7961" cy="0" id="connector9terminal" r="0.407944"/>
            <g cx="35.9951" cy="0" id="connector5terminal" r="0.407944"/>
            <g cx="43.1941" cy="0" id="connector10terminal" r="0.407944"/>
            <g cx="50.3931" cy="0" id="connector14terminal" r="0.407944"/>
            <g cx="57.5921" cy="0" id="connector15terminal" r="0.407944"/>
          </g>
        </g>
      </g>
    </g>
  </g>
  <path d="M -21.88 117.047 H -5.485 L -8.485 110.547 L 8.515 119.047 L -8.485 127.547 L -5.485 121.047 H -21.88 V 117.047 Z" bx:shape="arrow -21.88 110.547 30.395 17 4 17 3 1@0ef119f6" style="fill: rgb(216, 216, 216); stroke: rgb(0, 0, 0);" transform="matrix(0.999873, 0.015923, -0.015923, 0.999873, 23.908152, 41.085476)"/>
  <path d="M -21.88 117.047 H -5.485 L -8.485 110.547 L 8.515 119.047 L -8.485 127.547 L -5.485 121.047 H -21.88 V 117.047 Z" bx:shape="arrow -21.88 110.547 30.395 17 4 17 3 1@0ef119f6" style="fill: rgb(216, 216, 216); stroke: rgb(0, 0, 0); stroke-width: 1; transform-box: fill-box; transform-origin: 50% 50%;" transform="matrix(-0.015923, 0.999873, -0.999873, -0.015923, 244.198739, -103.71608)"/>
  <path style="stroke: rgb(255, 0, 0); paint-order: stroke; fill: rgb(255, 0, 0);" d="M 229.206 151.208 L 229.197 154.783 L 232.764 154.783 L 229.206 151.208 Z"/>
</svg>